<svg xmlns="http://www.w3.org/2000/svg" version="1" width="122" height="171" viewBox="0 0 122 171" preserveAspectRatio="xMidYMid meet"><metadata>
Created by potrace 1.13, written by Peter Selinger 2001-2015
</metadata><g transform="translate(0.000000,171.000000) scale(0.100000,-0.100000)" fill="#000000" stroke="none"><path d="M807 1676c-114-48-131-79-123-224 6-100 8-109 37-145 36-45 35-72-4-72-15-1-36-9-47-18-11-9-20-14-20-11 0 3-13-4-29-15-16-12-39-22-52-24-18-3-24-11-24-28 0-13-4-30-8-36-5-9-3-13 7-13 9 0 16-6 16-14 0-7 8-20 17-27 14-12 16-12 11 2-3 9-2 22 2 30 7 11 12 11 27-2 25-21 67-23 59-3-7 17 17 58 27 47 4-3 7 0 7 7 0 7 22-7 48-32 56-53 121-71 153-42 24 22 49 76 49 108 0 20 5 26 21 26 31 0 59 19 59 40 0 11 9 38 21 60 12 22 22 55 23 73 1 29-2 32-28 32-20-1-35 8-53 32-32 41-23 56 10 18 22-26 24-26 40-11 9 10 17 25 17 34 0 29-30 62-54 62-30 0-42 26-15 33 11 3 23-1 29-11 5-10 9-12 9-7 0 17-28 61-29 45 0-9-3-11-8-5-4 6-23 12-42 13-37 4-60 17-60 34 0 7 20 9 50 6 56-6 60 3 19 35-41 30-96 31-162 3zM175 1329c-44-33-57-52-28-43 14 5 15 4 3-4-8-6-18-8-22-6-15 9-18-21-9-91 9-74 1-108-48-216-28-62-43-175-30-222 8-30 15-37 37-38 77-5 104-3 109 5 4 5 1 6-5 2-7-4-12-2-12 3 0 6 6 11 13 11 6 0 23 9 36 19l24 18-26 38c-28 41-27 76 1 53 13-11 15-10 9 6-4 10-3 24 3 31 6 7 13 22 15 33 3 16-1 20-16 17-10-2-24-7-31-11-18-12 0 77 22 108 11 15 20 32 20 37 0 5 10 25 23 45 18 28 28 35 55 36 17 0 32 5 32 11 0 6 9 9 20 6 28-7 41 14 31 51-5 17-6 34-3 38 4 4 2 4-4 1-7-4-19 7-28 28-9 19-23 35-31 35-8 0-15 4-15 8 0 5-6 9-12 10-7 0-31 3-53 6-33 4-47 0-80-25zm-1-265c4-9 2-22-4-29-6-7-13-26-16-42-20-111-89-274-95-224-8 70 12 163 47 217 9 13 13 27 10 33-9 14 4 41 20 41 8 0 14 5 14 10 0 16 17 12 24-6zM327 733c-3-5-2-15 4-23 16-26 10-31-12-11-16 14-35 20-70 19-27 0-46-4-43-9 3-5 9-7 14-4 5 3 12 0 15-6 5-7-1-10-16-8-33 4-47-6-64-48-40-95-3-114 188-96l68 6-3 75c-3 74-4 76-33 85-16 6-33 14-36 20-4 5-9 5-12 0zM1069 713c0-10-2-25-5-33-2-8-8-37-13-65-36-179-32-169-78-168-14 1-17-10-6-21 17-17 10-36-15-42-15-3-38-9-52-13-24-7-23-8 12-15 23-4 46-2 59 4 24 13 31 8 49-38 12-30 11-35-9-56-12-12-18-26-14-31 5-4 3-5-3-2-10 6-178-73-198-93-5-5-16-5-26 0-10 5-39 9-65 8-30 0-52 5-62 15-14 14-11 15 26 12 23-1 44 2 48 8 3 6 1 7-5 3-7-4-12-4-12 1 0 4-18 17-40 27-22 11-40 23-40 28 0 4-39 8-86 8-98 0-119 8-127 48-6 29-6 29-47 19-35-10-39-13-25-23 14-10 12-12-10-18-33-8-32-19 11-72 22-27 31-44 23-44-8-1 1-14 20-30 32-27 34-31 22-54-17-30-49-39-116-31-48 6-53 5-68-19l-17-26 512 0 511 0-21 23c-28 29-28 37 1 37 12 0 17 4 11 8-13 9-28 43-25 59 1 8-4 10-14 7-11-4-15 0-15 16 0 11 5 18 10 15 6-3 10-1 10 4 0 6 5 11 11 11 5 0 7-4 4-10-3-5 1-22 9-37 14-28 14-27 14 30 1 61 0 62-28 47-11-6-21-6-25-1-3 5 4 13 16 16 19 6 20 8 5 23-17 17-75 21-115 7-18-6-23-5-19 6 8 25 74 35 113 16 30-14 35-15 35-2 0 8-4 15-10 15-5 0-10 5-10 10 0 6 9 10 20 10 19 0 20 7 20 201 0 168-2 200-13 190-16-12-118-34-125-26-3 3 3 12 14 20 12 9 14 14 6 15-7 0-10 5-7 10 3 6-1 10-9 10-9 0-16-8-17-17zM420 648c0-27 21-78 33-78 4 0 7-17 7-38 0-21 5-43 12-50 9-9 9-12-2-12-10 0-10-3 2-17 8-10 22-35 32-55 10-23 26-40 39-43 50-12 149-21 178-17 28 4 24 8-60 48-50 24-96 44-101 44-6 0-10 5-10 10 0 6-6 10-12 9-28-3-37 2-52 33-19 36-20 41-6 33 14-9 13-4-15 59-14 31-25 63-25 71 0 7-4 17-10 20-6 3-10-4-10-17zM466 615c12-33 75-124 93-135 9-5 12-10 8-10-29-1 108-90 138-90 12 0 26-5 32-11 9-9 10-7 6 9-3 12-9 19-14 16-5-3-9-1-9 4 0 17-72 97-86 96-7-1-10 4-8 11 3 6-3 18-12 26-16 12-17 12-11-3 4-12 2-15-9-11-8 3-13 11-10 19 3 7-2 18-10 25-12 10-13 9-8-5 3-9 4-16 1-16-6 0-12 5-71 60-27 25-35 30-30 15zM0 146c0-76 3-136 8-134 56 27 102 54 102 60 0 4 7 5 15 2 23-9 82 15 99 41 19 28 21 26-99 90-50 27-98 55-107 63-17 14-18 8-18-122z"/></g></svg>