<?xml version="1.0" standalone="no"?>
<!DOCTYPE svg PUBLIC "-//W3C//DTD SVG 20010904//EN"
 "http://www.w3.org/TR/2001/REC-SVG-20010904/DTD/svg10.dtd">
<svg version="1.0" xmlns="http://www.w3.org/2000/svg"
 width="500.000000pt" height="500.000000pt" viewBox="0 0 500.000000 500.000000"
 preserveAspectRatio="xMidYMid meet">
<metadata>
Created by potrace 1.11, written by Peter Selinger 2001-2013
</metadata>
<g transform="translate(0.000000,500.000000) scale(0.100000,-0.100000)"
fill="#000000" stroke="none">
<path d="M1011 3705 c-134 -90 -247 -167 -252 -172 -6 -6 406 -9 1018 -10 566
0 1052 -3 1082 -7 81 -10 139 -26 209 -57 399 -178 523 -670 274 -1087 -154
-258 -437 -449 -723 -487 -24 -4 -232 -6 -461 -7 l-416 0 -8 -51 c-4 -29 -8
-61 -10 -72 -3 -27 -13 -88 -24 -155 -5 -30 -12 -73 -15 -95 -3 -23 -7 -50 -9
-60 -3 -18 -10 -62 -22 -137 -7 -50 -14 -93 -19 -118 -2 -14 -7 -45 -10 -70
-3 -25 -10 -71 -16 -104 -6 -32 -8 -60 -5 -63 4 -5 27 7 216 115 182 104 169
88 184 227 8 72 30 216 35 223 3 6 132 12 301 15 294 5 324 8 465 49 335 96
655 348 839 661 209 355 237 769 74 1092 -104 204 -284 372 -491 457 -39 16
-117 40 -172 53 l-100 24 -850 0 -850 0 -244 -164z"/>
<path d="M1254 3215 c-2 -5 -10 -57 -18 -115 -23 -157 -26 -180 -36 -240 -5
-30 -12 -73 -15 -95 -3 -22 -8 -51 -10 -65 -3 -14 -7 -38 -9 -55 -3 -16 -14
-91 -26 -165 -25 -160 -27 -173 -35 -225 -3 -22 -10 -65 -15 -95 -5 -30 -12
-77 -15 -105 -4 -27 -8 -57 -10 -65 -2 -8 -7 -37 -10 -65 -4 -27 -8 -57 -10
-65 -3 -8 -18 -107 -35 -220 -17 -113 -32 -212 -35 -220 -2 -8 -6 -37 -10 -65
-3 -27 -7 -61 -10 -75 -3 -14 -7 -41 -10 -60 -3 -19 -7 -46 -10 -60 -2 -14 -6
-41 -9 -60 -3 -19 -8 -53 -12 -75 -14 -88 -30 -80 164 -83 94 -1 172 0 172 2
0 3 11 75 25 160 14 85 27 169 29 188 7 46 14 98 32 208 21 131 23 140 29 185
3 22 15 96 26 165 10 69 22 143 25 165 4 22 8 47 9 55 4 23 16 102 20 130 5
36 17 112 21 135 2 11 11 67 19 125 9 58 20 130 25 160 16 94 19 114 25 160 3
25 7 56 10 70 l6 26 542 -1 c604 0 583 2 627 -70 52 -85 9 -204 -95 -258 -35
-18 -58 -21 -176 -22 l-137 -1 -143 -94 c-79 -52 -148 -99 -154 -103 -5 -5
-57 -39 -113 -76 -57 -38 -100 -71 -95 -73 4 -3 177 -4 383 -3 325 2 383 5
435 20 237 70 421 265 460 491 44 252 -90 468 -325 525 -70 16 -1500 21 -1506
4z"/>
</g>
</svg>
